<?xml version="1.0" encoding="UTF-8" standalone="no"?>
<!-- Created with Inkscape (http://www.inkscape.org/) -->

<svg
   width="588"
   height="92"
   viewBox="0 0 155.57494 24.341682"
   version="1.1"
   id="svg1"
   xml:space="preserve"
   inkscape:export-filename="logo_new.svg"
   inkscape:export-xdpi="96"
   inkscape:export-ydpi="96"
   xmlns:inkscape="http://www.inkscape.org/namespaces/inkscape"
   xmlns:sodipodi="http://sodipodi.sourceforge.net/DTD/sodipodi-0.dtd"
   xmlns="http://www.w3.org/2000/svg"
   xmlns:svg="http://www.w3.org/2000/svg"><sodipodi:namedview
     id="namedview1"
     pagecolor="#ffffff"
     bordercolor="#000000"
     borderopacity="0.25"
     inkscape:showpageshadow="2"
     inkscape:pageopacity="0.0"
     inkscape:pagecheckerboard="0"
     inkscape:deskcolor="#d1d1d1"
     inkscape:document-units="mm" /><defs
     id="defs1" /><g
     inkscape:label="Camada 1"
     inkscape:groupmode="layer"
     id="layer1"><g
       id="g1"
       transform="translate(-27.521044,-134.5604)"
       inkscape:export-filename="logo_new.svg"
       inkscape:export-xdpi="96"
       inkscape:export-ydpi="96"><path
         style="fill:#5ce1e6;fill-opacity:1"
         d="m 63.319642,146.91249 v -11.1125 h 3.38797 3.38797 l 0.889748,6.54758 c 0.489361,3.60117 0.940583,6.39507 1.002715,6.20867 0.06213,-0.18639 0.489024,-3.10303 0.94865,-6.48143 l 0.835684,-6.14252 3.37259,-0.0741 3.37259,-0.074 v 11.12041 11.1204 h -1.980318 -1.980317 l -0.0702,-7.60677 -0.0702,-7.60677 -1.197006,7.54063 -1.197006,7.54062 -1.819474,0.0791 c -1.000711,0.0435 -1.912525,-0.016 -2.026254,-0.13229 -0.113728,-0.11629 -0.780374,-3.60472 -1.481436,-7.75207 l -1.274657,-7.54062 -0.07014,7.73906 -0.07014,7.73906 h -1.980378 -1.980379 z m 19.314583,0 v -11.1125 h 4.365625 4.365625 v 2.11667 2.11667 h -2.116667 -2.116666 v 2.10553 2.10554 l 2.05052,0.0773 2.050521,0.0773 0.07728,2.05052 0.07728,2.05052 h -2.127796 -2.127796 v 2.51355 2.51354 h 2.248958 2.248958 v 2.24896 2.24895 h -4.497916 -4.497917 z"
         id="path7"
         sodipodi:nodetypes="ccccssscccccccccccsssccccccccccccccccccccccccccccccc" /><path
         style="fill:#93b0b1;fill-opacity:1"
         d="m 42.020685,157.62759 c -2.139535,-0.75645 -3.038625,-2.49668 -3.041233,-5.88645 l -0.0015,-1.91823 h 1.984375 1.984375 l 0.02637,1.38906 c 0.04054,2.13545 0.270857,2.69803 1.146006,2.79931 0.931468,0.10781 1.199573,-0.28195 1.204819,-1.75151 0.0059,-1.64159 -0.723289,-2.83139 -3.165302,-5.16504 -1.241577,-1.18649 -2.376999,-2.53876 -2.66586,-3.175 -0.670403,-1.47664 -0.675488,-4.16842 -0.01064,-5.63237 0.756151,-1.665 1.896137,-2.33239 4.181095,-2.44778 3.469568,-0.1752 5.256973,1.3474 5.564624,4.74023 l 0.142379,1.57018 H 47.23202 45.093819 l -0.08136,-1.09753 c -0.142117,-1.91716 -1.830376,-2.1352 -2.016678,-0.26046 -0.07453,0.74998 0.221423,1.15271 2.829394,3.85017 2.583238,2.67188 2.96304,3.18598 3.35837,4.54586 0.578049,1.98842 0.378926,4.71239 -0.469408,6.42141 -1.0641,2.1437 -3.910745,3.00199 -6.693452,2.01815 z m 12.512505,0.13589 c -1.220942,-0.36805 -2.366011,-1.35815 -2.880234,-2.49044 -0.440284,-0.96947 -0.493141,-1.83169 -0.498336,-8.12884 -0.0047,-5.66554 0.07362,-7.26948 0.400008,-8.19455 0.778462,-2.2064 2.228101,-3.15366 4.811204,-3.14385 1.635614,0.006 3.329788,0.6211 4.099449,1.48786 0.906713,1.02111 1.266861,2.39927 1.266861,4.84784 v 2.38974 h -2.116666 -2.116667 v -2.09776 c 0,-2.12184 -0.324481,-2.92932 -1.177127,-2.92932 -0.939122,0 -1.070286,0.76573 -1.155781,6.74739 -0.09243,6.46729 0.05288,7.62484 0.974048,7.75886 1.126673,0.16392 1.35886,-0.35369 1.35886,-3.02927 v -2.48115 h 2.116667 2.116666 l -0.0058,2.84427 c -0.0081,3.98014 -0.732304,5.45814 -3.085529,6.2974 -1.117585,0.39858 -3.003904,0.45452 -4.107613,0.12182 z m 119.77916,-0.2335 c -0.72227,-0.32989 -1.26838,-0.85315 -1.71979,-1.64783 l -0.66146,-1.16445 v -7.9375 c 0,-7.81019 0.01,-7.95311 0.60529,-8.91091 0.93138,-1.49783 2.52208,-2.14958 4.94748,-2.0271 1.439,0.0727 2.15826,0.24236 2.70203,0.63748 1.11916,0.81322 1.93343,2.67837 2.11505,4.84473 l 0.15794,1.88393 h -1.98999 -1.98998 l -0.1218,-1.46864 c -0.0687,-0.82857 -0.30075,-1.64761 -0.53242,-1.87928 -0.54985,-0.54985 -1.48705,-0.23378 -1.80772,0.60966 -0.3299,0.86771 -0.32245,12.03673 0.009,12.90749 0.19913,0.52374 0.44224,0.67868 1.06488,0.67868 1.0429,0 1.32292,-0.70368 1.32292,-3.32451 0,-1.92191 -0.0152,-1.96715 -0.66146,-1.96715 -0.64256,0 -0.66146,-0.0529 -0.66146,-1.85209 v -1.85208 h 2.64584 2.64583 v 6.35 6.35 h -0.80725 c -0.67579,0 -0.87165,-0.15412 -1.20268,-0.9464 l -0.39543,-0.94639 -0.56154,0.71387 c -1.11967,1.42343 -3.2117,1.81229 -5.10289,0.94849 z M 28.659227,146.7802 v -10.98021 h 4.365625 4.365625 v 2.10597 2.10597 l -2.182813,0.0768 -2.182812,0.0769 v 2.11667 2.11666 l 2.05052,0.0773 2.050521,0.0773 v 1.96212 1.96211 l -2.050521,0.0773 -2.05052,0.0773 v 2.51354 2.51354 l 2.315104,0.0764 2.315104,0.0764 v 1.97408 1.97407 h -4.497917 -4.497916 z m 64.136536,9.73505 c 0.139027,-1.10061 2.009295,-20.27021 2.009295,-20.59458 0,-0.0664 1.666875,-0.12068 3.704167,-0.12068 3.664185,0 3.704195,0.006 3.706815,0.59532 10e-4,0.32742 0.4178,4.94109 0.9252,10.2526 0.50739,5.31151 0.92292,9.98471 0.92339,10.3849 l 8.4e-4,0.7276 h -1.98437 -1.98438 v -1.30128 c 0,-1.99734 -0.114403,-2.1383 -1.735469,-2.1383 h -1.414276 l -0.07877,1.65364 -0.07877,1.65365 -2.076945,0.0778 -2.076945,0.0777 z m 6.688234,-7.02307 c -0.08603,-0.76398 -0.291415,-3.175 -0.456414,-5.35781 -0.473045,-6.25806 -0.66257,-6.23121 -1.188275,0.1683 -0.207571,2.52681 -0.37988,5.04068 -0.382909,5.58639 -0.0055,0.98755 -3.94e-4,0.99218 1.089254,0.99218 h 1.094761 z m 6.433563,-2.71198 v -10.98021 h 2.09474 2.09474 l 0.25553,1.25677 c 0.14054,0.69123 0.59689,3.04271 1.01411,5.22553 l 0.75859,3.96875 0.13229,-5.15938 0.13229,-5.15937 2.05052,-0.0773 2.05052,-0.0773 v 10.99134 10.99134 h -2.11667 c -1.16416,0 -2.11666,-0.0382 -2.11666,-0.0848 0,-0.38546 -2.14581,-10.61583 -2.24812,-10.71813 -0.0732,-0.0732 -0.13313,2.32748 -0.13313,5.33492 v 5.46805 h -1.98438 -1.98437 z m 15.34583,7.32075 c 0,-3.58985 -0.0327,-3.79631 -1.71979,-10.85229 -0.94589,-3.95606 -1.71979,-7.25039 -1.71979,-7.32075 0,-0.0704 0.93115,-0.12792 2.06923,-0.12792 h 2.06923 l 0.31729,2.05052 c 0.61425,3.96955 0.89675,5.38518 1.04508,5.23685 0.0824,-0.0824 0.39663,-1.726 0.6983,-3.65245 l 0.54848,-3.50262 2.05015,-0.0773 c 1.27465,-0.048 2.05015,0.0254 2.05015,0.19406 0,0.14924 -0.7739,3.50811 -1.71979,7.46417 -1.67096,6.98859 -1.71979,7.29298 -1.71979,10.72 v 3.52717 h -1.98437 -1.98438 z m 10.84792,-5.20408 v -8.86354 h -1.32292 -1.32292 v -2.12277 -2.12278 l 4.69636,0.0722 4.69635,0.0723 0.0773,2.05052 0.0773,2.05052 h -1.33404 -1.33405 v 8.86354 8.86354 h -2.11667 -2.11666 z m 8.20208,-2.11667 v -10.98021 h 2.11667 2.11666 v 3.96875 3.96875 h 1.19063 1.19062 v -3.96875 -3.96875 h 1.98438 1.98437 v 10.98021 10.98021 h -1.97853 -1.97854 l -0.072,-4.96094 -0.072,-4.96093 -1.12448,-0.0814 -1.12448,-0.0814 v 5.04229 5.0423 h -2.11666 -2.11667 z m 12.7,0 v -10.98021 h 1.98437 1.98438 v 10.98021 10.98021 h -1.98438 -1.98437 z m 6.08542,0 v -10.98021 h 2.09883 c 1.77494,0 2.11811,0.0715 2.22371,0.46302 0.0687,0.25467 0.51597,2.54662 0.99398,5.09323 0.478,2.54662 0.96562,4.74332 1.08358,4.88157 0.11796,0.13824 0.21448,-2.15371 0.21448,-5.09323 v -5.34459 h 1.98437 1.98438 v 10.98021 10.98021 h -2.08011 -2.08011 l -1.00089,-5.09323 c -0.55049,-2.80127 -1.0991,-5.27182 -1.21913,-5.4901 -0.12055,-0.21921 -0.22185,2.0609 -0.2263,5.09323 l -0.008,5.4901 h -1.98438 -1.98437 z"
         id="path1" /></g></g></svg>
