<?xml version="1.0" encoding="UTF-8" standalone="no"?>
<!-- Created with Inkscape (http://www.inkscape.org/) -->

<svg
   width="100mm"
   height="100mm"
   viewBox="0 0 100 100"
   version="1.1"
   id="svg5"
   inkscape:export-filename="/home/ezequiel/Ãrea de Trabalho/escmeanything/Pages/images/day.png"
   inkscape:export-xdpi="96"
   inkscape:export-ydpi="96"
   inkscape:version="1.1.2 (0a00cf5339, 2022-02-04)"
   sodipodi:docname="dayNight.svg"
   xmlns:inkscape="http://www.inkscape.org/namespaces/inkscape"
   xmlns:sodipodi="http://sodipodi.sourceforge.net/DTD/sodipodi-0.dtd"
   xmlns="http://www.w3.org/2000/svg"
   xmlns:svg="http://www.w3.org/2000/svg">
  <sodipodi:namedview
     id="namedview7"
     pagecolor="#ffffff"
     bordercolor="#666666"
     borderopacity="1.0"
     inkscape:pageshadow="2"
     inkscape:pageopacity="0.0"
     inkscape:pagecheckerboard="true"
     inkscape:document-units="mm"
     showgrid="false"
     inkscape:zoom="1"
     inkscape:cx="150"
     inkscape:cy="64.499998"
     inkscape:window-width="1846"
     inkscape:window-height="1016"
     inkscape:window-x="0"
     inkscape:window-y="0"
     inkscape:window-maximized="1"
     inkscape:current-layer="g857"
     showguides="true"
     inkscape:guide-bbox="true">
    <sodipodi:guide
       position="97.861488,92.100693"
       orientation="0,-1"
       id="guide2179" />
  </sodipodi:namedview>
  <defs
     id="defs2" />
  <g
     inkscape:label="Camada 1"
     inkscape:groupmode="layer"
     id="layer1">
    <g
       id="g57"
       transform="translate(-201.58382,-4.1554957)">
      <path
         style="fill:#333333;fill-opacity:1;stroke:none;stroke-width:0.1;stroke-miterlimit:4;stroke-dasharray:none;stroke-opacity:1"
         id="path2871"
         sodipodi:type="arc"
         sodipodi:cx="68.719704"
         sodipodi:cy="72.64061"
         sodipodi:rx="47.561413"
         sodipodi:ry="47.561413"
         sodipodi:start="3.1860113"
         sodipodi:end="3.1405455"
         sodipodi:open="true"
         sodipodi:arc-type="arc"
         d="M 21.205203,70.528691 A 47.561413,47.561413 0 0 1 70.291427,25.105174 47.561413,47.561413 0 0 1 116.26993,73.671934 47.561413,47.561413 0 0 1 68.228912,120.19949 47.561413,47.561413 0 0 1 21.158317,72.690414" />
      <path
         style="fill:#4d4d4d;fill-opacity:1;stroke:#4d4d4d;stroke-width:1.5;stroke-miterlimit:4;stroke-dasharray:none;stroke-opacity:1"
         id="path2871-36"
         sodipodi:type="arc"
         sodipodi:cx="68.699165"
         sodipodi:cy="72.338692"
         sodipodi:rx="48.901924"
         sodipodi:ry="48.901924"
         sodipodi:start="3.1416416"
         sodipodi:end="3.1405455"
         sodipodi:open="true"
         sodipodi:arc-type="arc"
         d="M 19.797241,72.336298 A 48.901924,48.901924 0 0 1 68.688159,23.436769 48.901924,48.901924 0 0 1 117.60108,72.314285 48.901924,48.901924 0 0 1 68.736973,121.2406 48.901924,48.901924 0 0 1 19.797268,72.3899" />
      <path
         style="fill:#f2f2f2;fill-opacity:1;stroke:#fffff7;stroke-width:0.2;stroke-miterlimit:4;stroke-dasharray:none;stroke-opacity:1"
         id="path2871-3"
         sodipodi:type="arc"
         sodipodi:cx="68.719704"
         sodipodi:cy="72.640617"
         sodipodi:rx="47.561657"
         sodipodi:ry="47.561413"
         sodipodi:start="0.26179939"
         sodipodi:end="3.403392"
         sodipodi:open="true"
         sodipodi:arc-type="arc"
         d="M 114.66074,84.950417 A 47.561657,47.561413 0 0 1 56.409842,118.58141 47.561657,47.561413 0 0 1 22.77867,60.33082" />
      <g
         id="g857"
         transform="matrix(1.0660733,0,0,1.0660733,0.29888154,119.0526)"
         style="fill:#7b7b7b;fill-opacity:1;stroke:none;stroke-opacity:1">
        <path
           style="fill:#ffcc00;fill-opacity:1;stroke:none;stroke-width:0.500425;stroke-opacity:1"
           d="m 231.38643,-17.852246 c -0.80453,-0.80453 -1.46278,-1.91872 -1.46278,-2.47598 0,-0.86944 -0.37275,-1.03465 -2.62723,-1.16445 l -2.62724,-0.15126 -0.29385,-10.75914 c -0.29999,-10.983607 -0.55978,-12.734486 -3.04428,-20.517448 -0.80283,-2.514978 -1.57871,-3.776746 -3.42071,-5.5629 -5.70349,-5.530592 -8.50413,-12.164575 -8.50413,-20.144017 0,-7.825186 2.47172,-13.793896 8.0068,-19.334791 10.59665,-10.607768 27.93613,-10.607768 38.53277,0 5.53508,5.540895 8.0068,11.509605 8.0068,19.334791 0,7.979442 -2.80064,14.613425 -8.50413,20.144017 -1.842,1.786154 -2.61787,3.047922 -3.42072,5.5629 -2.48449,7.782962 -2.74428,9.533841 -3.04427,20.517448 l -0.29385,10.75914 -2.62724,0.15126 c -2.25448,0.1298 -2.62723,0.29501 -2.62723,1.16445 0,0.55726 -0.65825,1.67145 -1.46278,2.47598 -1.36194,1.36194 -1.72684,1.46278 -5.29297,1.46278 -3.56612,0 -3.93102,-0.10084 -5.29296,-1.46278 z m 8.94607,-1.63986 c 1.479,-1.47899 0.66713,-1.90161 -3.65311,-1.90161 -4.32023,0 -5.1321,0.42262 -3.6531,1.90161 0.78385,0.78385 6.52236,0.78385 7.30621,0 z m 6.10519,-5.6548 v -1.25107 h -9.7583 -9.75829 v 1.25107 1.25106 h 9.75829 9.7583 z m -0.0903,-4.87915 c -0.15943,-1.12254 -0.18876,-1.12596 -9.668,-1.12596 -9.47923,0 -9.50856,0.004 -9.66799,1.12596 l -0.15991,1.12596 h 9.8279 9.82791 z m 0.0903,-4.87915 c 0,-0.966633 -0.33362,-1.000852 -9.7583,-1.000852 -9.42467,0 -9.75829,0.03423 -9.75829,1.000852 0,0.96663 0.33362,1.00085 9.75829,1.00085 9.42468,0 9.7583,-0.0342 9.7583,-1.00085 z m 0.44471,-7.381277 c 0.3115,-2.133063 1.28401,-6.355403 2.16113,-9.382977 1.54483,-5.332289 1.69992,-5.61594 4.95252,-9.057396 5.27155,-5.577637 7.45441,-10.838445 7.45441,-17.965579 0,-6.897457 -2.42099,-12.691595 -7.31578,-17.508802 -9.76382,-9.609063 -25.15724,-9.598733 -34.93438,0.02344 -4.92205,4.84403 -7.29197,10.526848 -7.29197,17.485364 0,7.127134 2.18286,12.387942 7.45441,17.965579 3.2526,3.441456 3.40769,3.725107 4.95252,9.057396 0.87712,3.027574 1.84963,7.249914 2.16113,9.382977 l 0.56637,3.878298 h 9.63663 9.63664 z m -47.82157,-3.42324 c -0.21337,-0.556023 1.25969,-2.366502 4.88591,-6.005106 2.85526,-2.865006 5.48395,-5.209099 5.84155,-5.209099 0.3576,0 0.78764,0.358205 0.95564,0.796007 0.21336,0.556023 -1.25969,2.366502 -4.88592,6.005106 -2.85525,2.865006 -5.48395,5.209099 -5.84155,5.209099 -0.35759,0 -0.78763,-0.358205 -0.95563,-0.796007 z m 68.43994,-4.413092 c -3.62622,-3.638604 -5.09927,-5.449083 -4.8859,-6.005106 0.16799,-0.437802 0.59803,-0.796007 0.95563,-0.796007 0.3576,0 2.98629,2.344093 5.84155,5.209099 3.62622,3.638604 5.09928,5.449083 4.88591,6.005106 -0.168,0.437802 -0.59803,0.796007 -0.95563,0.796007 -0.3576,0 -2.9863,-2.344093 -5.84156,-5.209099 z m -72.51945,-24.919808 c 0.15318,-1.080146 0.38363,-1.147685 3.91595,-1.147685 3.41958,0 3.75319,0.08897 3.75319,1.000851 0,0.903075 -0.38256,1.015195 -3.91595,1.147685 -3.83194,0.143684 -3.91245,0.122213 -3.75319,-1.000851 z m 75.64485,0.319954 c -0.51775,-1.349249 0.56351,-1.77215 4.13517,-1.617331 3.14695,0.13641 3.46756,0.249599 3.61328,1.275649 0.1538,1.082929 0.0146,1.125957 -3.64379,1.125957 -2.99194,0 -3.86793,-0.167375 -4.10466,-0.784275 z m -68.82102,-25.643601 c -3.19244,-3.19244 -4.34948,-4.67215 -4.12031,-5.26937 0.60387,-1.57366 1.9973,-0.81821 6.10263,3.30855 4.11895,4.140462 4.84483,5.483354 3.28705,6.081128 -0.59722,0.229174 -2.07693,-0.927863 -5.26937,-4.120308 z m 64.27424,4.04962 c -1.37455,-0.492866 -0.43762,-2.101407 3.51343,-6.03194 4.12069,-4.09928 5.48388,-4.84345 6.07077,-3.31403 0.21315,0.55544 -0.8902,2.0369 -3.57454,4.79955 -4.11045,4.230367 -5.00459,4.906802 -6.00966,4.54642 z"
           id="path859" />
        <path
           style="fill:#ffcc00;fill-opacity:1;stroke:none;stroke-width:5.66929;stroke-opacity:1"
           id="path1281"
           sodipodi:type="arc"
           sodipodi:cx="236.95609"
           sodipodi:cy="-78.770485"
           sodipodi:rx="25.687561"
           sodipodi:ry="24.702972"
           sodipodi:start="3.141645"
           sodipodi:end="3.1405455"
           sodipodi:open="true"
           sodipodi:arc-type="arc"
           d="m 211.26852,-78.771778 a 25.687561,24.702972 0 0 1 25.68185,-24.701682 25.687561,24.702972 0 0 1 25.69327,24.690687 25.687561,24.702972 0 0 1 -25.66772,24.715253 25.687561,24.702972 0 0 1 -25.70738,-24.677096" />
        <rect
           style="fill:#ffcc00;fill-opacity:1;stroke:none;stroke-width:0.67826;stroke-opacity:1"
           id="rect1538"
           width="6.9817042"
           height="29.759966"
           x="-60.262447"
           y="-251.55086"
           rx="0.55976415"
           transform="matrix(0.00752338,0.9999717,-0.99999912,0.00132842,0,0)" />
        <rect
           style="fill:#ffcc00;fill-opacity:1;stroke:none;stroke-width:1.39222;stroke-opacity:1"
           id="rect1538-6"
           width="35.119709"
           height="24.926846"
           x="-81.371933"
           y="-249.05162"
           rx="2.8157527"
           transform="matrix(-0.0060931,0.99998144,-0.99924573,-0.03883258,0,0)" />
      </g>
    </g>
    <g
       id="g1592"
       transform="translate(-8.8333803,84.155979)" />
  </g>
</svg>
