<?xml version="1.0" encoding="UTF-8" standalone="no"?>
<!-- Created with Inkscape (http://www.inkscape.org/) -->

<svg
   width="100mm"
   height="100mm"
   viewBox="0 0 100 100"
   version="1.1"
   id="svg5"
   inkscape:export-filename="/home/ezequiel/Ãrea de Trabalho/escmeanything/Pages/images/day.png"
   inkscape:export-xdpi="96"
   inkscape:export-ydpi="96"
   inkscape:version="1.1.2 (0a00cf5339, 2022-02-04)"
   sodipodi:docname="dayNight.svg"
   xmlns:inkscape="http://www.inkscape.org/namespaces/inkscape"
   xmlns:sodipodi="http://sodipodi.sourceforge.net/DTD/sodipodi-0.dtd"
   xmlns="http://www.w3.org/2000/svg"
   xmlns:svg="http://www.w3.org/2000/svg">
  <sodipodi:namedview
     id="namedview7"
     pagecolor="#ffffff"
     bordercolor="#666666"
     borderopacity="1.0"
     inkscape:pageshadow="2"
     inkscape:pageopacity="0.0"
     inkscape:pagecheckerboard="true"
     inkscape:document-units="mm"
     showgrid="false"
     inkscape:zoom="1"
     inkscape:cx="19.5"
     inkscape:cy="328.5"
     inkscape:window-width="1846"
     inkscape:window-height="1016"
     inkscape:window-x="0"
     inkscape:window-y="0"
     inkscape:window-maximized="1"
     inkscape:current-layer="g857"
     showguides="true"
     inkscape:guide-bbox="true">
    <sodipodi:guide
       position="97.861488,92.100693"
       orientation="0,-1"
       id="guide2179" />
  </sodipodi:namedview>
  <defs
     id="defs2" />
  <g
     inkscape:label="Camada 1"
     inkscape:groupmode="layer"
     id="layer1">
    <g
       id="g57"
       transform="translate(-201.58382,-4.1554957)">
      <path
         style="fill:#333333;fill-opacity:1;stroke:none;stroke-width:0.1;stroke-miterlimit:4;stroke-dasharray:none;stroke-opacity:1"
         id="path2871"
         sodipodi:type="arc"
         sodipodi:cx="68.719704"
         sodipodi:cy="72.64061"
         sodipodi:rx="47.561413"
         sodipodi:ry="47.561413"
         sodipodi:start="3.1860113"
         sodipodi:end="3.1405455"
         sodipodi:open="true"
         sodipodi:arc-type="arc"
         d="M 21.205203,70.528691 A 47.561413,47.561413 0 0 1 70.291427,25.105174 47.561413,47.561413 0 0 1 116.26993,73.671934 47.561413,47.561413 0 0 1 68.228912,120.19949 47.561413,47.561413 0 0 1 21.158317,72.690414" />
      <path
         style="fill:#4d4d4d;fill-opacity:1;stroke:#4d4d4d;stroke-width:1.5;stroke-miterlimit:4;stroke-dasharray:none;stroke-opacity:1"
         id="path2871-36"
         sodipodi:type="arc"
         sodipodi:cx="68.699165"
         sodipodi:cy="72.338692"
         sodipodi:rx="48.901924"
         sodipodi:ry="48.901924"
         sodipodi:start="3.1416416"
         sodipodi:end="3.1405455"
         sodipodi:open="true"
         sodipodi:arc-type="arc"
         d="M 19.797241,72.336298 A 48.901924,48.901924 0 0 1 68.688159,23.436769 48.901924,48.901924 0 0 1 117.60108,72.314285 48.901924,48.901924 0 0 1 68.736973,121.2406 48.901924,48.901924 0 0 1 19.797268,72.3899" />
      <path
         style="fill:#f2f2f2;fill-opacity:1;stroke:#fffff7;stroke-width:0.2;stroke-miterlimit:4;stroke-dasharray:none;stroke-opacity:1"
         id="path2871-3"
         sodipodi:type="arc"
         sodipodi:cx="68.719704"
         sodipodi:cy="72.640617"
         sodipodi:rx="47.561657"
         sodipodi:ry="47.561413"
         sodipodi:start="0.26179939"
         sodipodi:end="3.403392"
         sodipodi:open="true"
         sodipodi:arc-type="arc"
         d="M 114.66074,84.950417 A 47.561657,47.561413 0 0 1 56.409842,118.58141 47.561657,47.561413 0 0 1 22.77867,60.33082" />
      <g
         id="g857"
         transform="matrix(1.0660733,0,0,1.0660733,0.29888154,119.0526)"
         style="fill:#7b7b7b;fill-opacity:1;stroke:none;stroke-opacity:1">
        <path
           style="fill:#e3622f;fill-opacity:1;stroke:none;stroke-width:0.513728;stroke-opacity:1"
           d="m 230.86625,-15.994806 c -0.82593,-0.825918 -1.50168,-1.969726 -1.50168,-2.541799 0,-0.892553 -0.38265,-1.062155 -2.69706,-1.195406 l -2.69708,-0.15528 -0.30166,-11.045152 c -0.30797,-11.275587 -0.57467,-13.07301 -3.12521,-21.062867 -0.82417,-2.581834 -1.62068,-3.877144 -3.51164,-5.71078 -5.85511,-5.677612 -8.73019,-12.487948 -8.73019,-20.679508 0,-8.033205 2.53742,-14.160582 8.21964,-19.848772 10.87834,-10.88975 28.67876,-10.88975 39.5571,0 5.68221,5.68819 8.21964,11.815567 8.21964,19.848772 0,8.19156 -2.87509,15.001896 -8.7302,20.679508 -1.89097,1.833636 -2.68747,3.128946 -3.51166,5.71078 -2.55053,7.989857 -2.81723,9.78728 -3.12519,21.062867 l -0.30166,11.045152 -2.69708,0.15528 c -2.31441,0.133251 -2.69707,0.302853 -2.69707,1.195406 0,0.572073 -0.67575,1.715881 -1.50167,2.541799 -1.39814,1.398144 -1.77274,1.501665 -5.43367,1.501665 -3.66092,0 -4.03552,-0.103521 -5.43366,-1.501665 z m 9.18388,-1.683453 c 1.51832,-1.518307 0.68487,-1.952161 -3.75022,-1.952161 -4.43507,0 -5.26852,0.433854 -3.75021,1.952161 0.80469,0.804687 6.69574,0.804687 7.50043,0 z m 6.26748,-5.805122 v -1.284328 h -10.0177 -10.0177 v 1.284328 1.284317 h 10.0177 10.0177 z m 0.1819,-6.091511 c 0,0 -0.46837,-0.07323 -10.1996,-0.07323 -9.73122,0 -9.98802,0.06717 -9.98802,0.06717 l -0.10114,2.244609 h 10.08916 10.08916 z m -0.1819,-3.926196 c 0,-0.992329 -0.34248,-1.027458 -10.0177,-1.027458 -9.67521,0 -10.0177,0.03514 -10.0177,1.027458 0,0.992326 0.34249,1.027456 10.0177,1.027456 9.67522,0 10.0177,-0.03511 10.0177,-1.027456 z m 7.75929,-26.508071 c 5.41169,-5.725908 7.65257,-11.126566 7.65257,-18.443162 0,-7.080812 -2.48534,-13.028977 -7.51026,-17.974241 -10.02337,-9.864498 -25.826,-9.853898 -35.86304,0.02406 -5.05289,4.9728 -7.48581,10.806686 -7.48581,17.95018 0,7.316596 2.24088,12.717254 7.65257,18.443162 20.76817,-12.993779 19.36331,-0.283617 35.55397,1e-6 z m -56.39557,15.416336 c -0.21905,-0.570804 1.29317,-2.429412 5.01579,-6.164741 2.93116,-2.941167 5.62974,-5.347573 5.99684,-5.347573 0.36711,0 0.80858,0.367727 0.98105,0.817167 0.21903,0.570804 -1.29318,2.429411 -5.01582,6.16474 -2.93115,2.941168 -5.62972,5.347574 -5.99683,5.347574 -0.3671,0 -0.80857,-0.367727 -0.98103,-0.817167 z m 70.25929,-4.530407 c -3.72262,-3.735329 -5.23482,-5.593936 -5.01578,-6.16474 0.17245,-0.44944 0.61393,-0.817167 0.98103,-0.817167 0.36711,0 3.06567,2.406406 5.99684,5.347573 3.72261,3.735329 5.23483,5.593937 5.01579,6.164741 -0.17247,0.44944 -0.61393,0.817167 -0.98104,0.817167 -0.3671,0 -3.06568,-2.406406 -5.99684,-5.347574 z m -74.44725,-25.582255 c 0.15725,-1.108859 0.39383,-1.178193 4.02005,-1.178193 3.51048,0 3.85296,0.09134 3.85296,1.027456 0,0.927081 -0.39273,1.042182 -4.02005,1.178194 -3.9338,0.147503 -4.01645,0.125461 -3.85296,-1.027457 z m 77.65573,0.32846 c -0.53151,-1.385116 0.57849,-1.81926 4.24509,-1.660326 3.23061,0.140038 3.55974,0.256235 3.70934,1.309561 0.15788,1.111716 0.015,1.155888 -3.74066,1.155888 -3.07147,0 -3.97075,-0.171825 -4.21377,-0.805123 z m -70.6505,-26.325295 c -3.27731,-3.2773 -4.4651,-4.79635 -4.22984,-5.40944 0.61992,-1.61549 2.05039,-0.83996 6.26485,3.3965 4.22846,4.250529 4.97363,5.62912 3.37444,6.242784 -0.6131,0.235266 -2.13215,-0.952528 -5.40945,-4.229844 z m 65.98285,4.157277 c -1.41109,-0.505968 -0.44925,-2.157269 3.60683,-6.192287 4.23023,-4.20825 5.62966,-4.9722 6.23215,-3.40213 0.21881,0.57021 -0.91387,2.09105 -3.66956,4.92714 -4.21972,4.342822 -5.13763,5.037239 -6.16942,4.667277 z"
           id="path859"
           sodipodi:nodetypes="ssscssssccsscscsssssssssccccccccccscccccssssscscsscccssccscssssssscssscsssssccsscsssss" />
        <path
           style="fill:#e3622f;fill-opacity:1;stroke:none;stroke-width:5.66929;stroke-opacity:1"
           id="path1281"
           sodipodi:type="arc"
           sodipodi:cx="236.58397"
           sodipodi:cy="-78.53244"
           sodipodi:rx="26.370607"
           sodipodi:ry="25.359655"
           sodipodi:start="3.141645"
           sodipodi:end="3.1405455"
           sodipodi:open="true"
           sodipodi:arc-type="arc"
           d="m 210.21336,-78.533768 a 26.370607,25.359655 0 0 1 26.36474,-25.358322 26.370607,25.359655 0 0 1 26.37647,25.347036 26.370607,25.359655 0 0 1 -26.35024,25.372262 26.370607,25.359655 0 0 1 -26.39095,-25.333093" />
      </g>
    </g>
    <g
       id="g1592"
       transform="translate(-8.8333803,84.155979)" />
  </g>
</svg>
